<?xml version="1.0" encoding="UTF-8" standalone="no"?>
<!-- Created with Inkscape (http://www.inkscape.org/) -->

<svg
   width="160mm"
   height="110mm"
   viewBox="0 0 160 110"
   version="1.1"
   id="svg1"
   xml:space="preserve"
   inkscape:version="1.4.3 (0d15f75042, 2025-12-25)"
   inkscape:export-xdpi="337.97546"
   inkscape:export-ydpi="337.97546"
   xmlns:inkscape="http://www.inkscape.org/namespaces/inkscape"
   xmlns:sodipodi="http://sodipodi.sourceforge.net/DTD/sodipodi-0.dtd"
   xmlns:xlink="http://www.w3.org/1999/xlink"
   xmlns="http://www.w3.org/2000/svg"
   xmlns:svg="http://www.w3.org/2000/svg"><sodipodi:namedview
     id="namedview1"
     pagecolor="#ffffff"
     bordercolor="#666666"
     borderopacity="1.0"
     inkscape:showpageshadow="2"
     inkscape:pageopacity="0.0"
     inkscape:pagecheckerboard="1"
     inkscape:deskcolor="#d1d1d1"
     inkscape:document-units="mm"
     showguides="true"
     inkscape:zoom="1.4142136"
     inkscape:cx="310.41987"
     inkscape:cy="266.57925"
     inkscape:current-layer="g83" /><defs
     id="defs1"><linearGradient
       y2="3.4149294"
       x2="3.4160707"
       y1="27.58243"
       x1="3.4160707"
       id="linearGradient81"
       gradientTransform="matrix(1.4312914,0,0,1.4313506,125.78608,55.399994)"
       gradientUnits="userSpaceOnUse"><stop
         stop-color="#03ca45"
         offset="0"
         id="stop80"
         style="stop-color:#051429;stop-opacity:1;" /><stop
         stop-color="#03ca45"
         offset="0.39792708"
         id="stop82"
         style="stop-color:#7348fb;stop-opacity:1;" /><stop
         stop-color="#03ca45"
         offset="0.75"
         id="stop83"
         style="stop-color:#20a345;stop-opacity:1;" /></linearGradient><inkscape:path-effect
       effect="spiro"
       id="path-effect61"
       is_visible="true"
       lpeversion="1" /><inkscape:path-effect
       effect="spiro"
       id="path-effect59"
       is_visible="true"
       lpeversion="1" /><inkscape:path-effect
       effect="spiro"
       id="path-effect57"
       is_visible="true"
       lpeversion="1" /><inkscape:path-effect
       effect="spiro"
       id="path-effect55"
       is_visible="true"
       lpeversion="1" /><inkscape:path-effect
       effect="spiro"
       id="path-effect53"
       is_visible="true"
       lpeversion="1" /><inkscape:path-effect
       effect="spiro"
       id="path-effect51"
       is_visible="true"
       lpeversion="1" /><inkscape:path-effect
       effect="spiro"
       id="path-effect43"
       is_visible="true"
       lpeversion="1" /><inkscape:path-effect
       effect="spiro"
       id="path-effect42"
       is_visible="true"
       lpeversion="1" /><inkscape:path-effect
       effect="spiro"
       id="path-effect41"
       is_visible="true"
       lpeversion="1" /><inkscape:path-effect
       effect="spiro"
       id="path-effect40"
       is_visible="true"
       lpeversion="1" /><inkscape:path-effect
       effect="spiro"
       id="path-effect39"
       is_visible="true"
       lpeversion="1" /><inkscape:path-effect
       effect="spiro"
       id="path-effect38"
       is_visible="true"
       lpeversion="1" /><inkscape:path-effect
       effect="spiro"
       id="path-effect27"
       is_visible="true"
       lpeversion="1" /><inkscape:path-effect
       effect="spiro"
       id="path-effect26"
       is_visible="true"
       lpeversion="1" /><inkscape:path-effect
       effect="spiro"
       id="path-effect24"
       is_visible="true"
       lpeversion="1" /><inkscape:path-effect
       effect="spiro"
       id="path-effect12"
       is_visible="true"
       lpeversion="1" /><inkscape:path-effect
       effect="spiro"
       id="path-effect11"
       is_visible="true"
       lpeversion="1" /><inkscape:path-effect
       effect="spiro"
       id="path-effect10"
       is_visible="true"
       lpeversion="1" /><inkscape:path-effect
       effect="spiro"
       id="path-effect9"
       is_visible="true"
       lpeversion="1" /><inkscape:path-effect
       effect="spiro"
       id="path-effect8"
       is_visible="true"
       lpeversion="1" /><inkscape:path-effect
       effect="spiro"
       id="path-effect7"
       is_visible="true"
       lpeversion="1" /><inkscape:path-effect
       effect="spiro"
       id="path-effect5"
       is_visible="true"
       lpeversion="1" /><linearGradient
       y2="3.4149294"
       x2="3.4160707"
       y1="27.58243"
       x1="3.4160707"
       id="184190-_03CA45-_AF00AA"
       gradientTransform="matrix(1.4312914,0,0,1.4313506,125.78608,55.399994)"
       gradientUnits="userSpaceOnUse"><stop
         stop-color="#03ca45"
         offset="0"
         id="stop1"
         style="stop-color:#7348fb;stop-opacity:1;" /><stop
         stop-color="#af00aa"
         offset="1"
         id="stop2"
         style="stop-color:#20a345;stop-opacity:1;" /></linearGradient><linearGradient
       inkscape:collect="always"
       xlink:href="#linearGradient81"
       id="linearGradient67"
       gradientUnits="userSpaceOnUse"
       gradientTransform="matrix(1.8958299,0,0,1.9226458,119.32598,47.696962)"
       x1="5.3816772"
       y1="27.305923"
       x2="23.586939"
       y2="-0.17964764"
       spreadMethod="pad" /><linearGradient
       inkscape:collect="always"
       xlink:href="#184190-_03CA45-_AF00AA"
       id="linearGradient99"
       x1="142.69934"
       y1="77.530151"
       x2="153.76732"
       y2="77.530151"
       gradientUnits="userSpaceOnUse" /><linearGradient
       inkscape:collect="always"
       xlink:href="#184190-_03CA45-_AF00AA"
       id="linearGradient2"
       gradientUnits="userSpaceOnUse"
       gradientTransform="matrix(1.4312914,0,0,1.4313506,125.78608,55.399994)"
       x1="3.4160707"
       y1="27.58243"
       x2="3.4160707"
       y2="3.4149294" /></defs><g
     inkscape:label="Layer 1"
     inkscape:groupmode="layer"
     id="layer1"
     transform="translate(-68.45991,-28.321291)"><rect
       style="display:none;opacity:1;fill:none;fill-rule:evenodd;stroke:#000000;stroke-width:1;stroke-linejoin:round;stroke-dasharray:none;paint-order:stroke fill markers"
       id="rect3"
       width="149.33748"
       height="90.676262"
       x="73.776428"
       y="32.323273"
       ry="6.2022686"
       sodipodi:insensitive="true" /><circle
       style="display:none;opacity:1;fill:#ffffff;fill-rule:evenodd;stroke:#000000;stroke-width:1;stroke-linejoin:round;stroke-dasharray:none;paint-order:stroke fill markers"
       id="path6"
       cx="148.23418"
       cy="77.530792"
       r="22.948389"
       inkscape:label="circle"
       sodipodi:insensitive="true" /><g
       id="g22"
       style="display:inline"><g
         id="g100"
         style="display:inline"
         inkscape:label="name"><g
           id="g103"
           style="display:none"
           sodipodi:insensitive="true"><text
             xml:space="preserve"
             style="font-size:11.2889px;line-height:1.25;font-family:'Arial Rounded MT';-inkscape-font-specification:'Arial Rounded MT, Normal';text-align:start;text-anchor:start;display:inline;fill:#051429;fill-opacity:1;stroke-width:0.264583"
             x="83.927444"
             y="134.68272"
             id="text100"><tspan
               sodipodi:role="line"
               id="tspan100"
               style="font-style:normal;font-variant:normal;font-weight:bold;font-stretch:normal;font-size:11.2889px;font-family:'SauceCodePro Nerd Font Propo';-inkscape-font-specification:'SauceCodePro Nerd Font Propo Bold';fill:#051429;fill-opacity:1;stroke-width:0.264583"
               x="83.927444"
               y="134.68272">GitHub      Preview</tspan></text><text
             xml:space="preserve"
             style="font-size:11.2889px;line-height:1.25;font-family:'Arial Rounded MT';-inkscape-font-specification:'Arial Rounded MT, Normal';text-align:start;text-anchor:start;display:inline;fill:#7348fb;fill-opacity:1;stroke-width:0.264583"
             x="83.927444"
             y="134.68272"
             id="text99"><tspan
               sodipodi:role="line"
               id="tspan99"
               style="font-style:normal;font-variant:normal;font-weight:bold;font-stretch:normal;font-size:11.2889px;font-family:'SauceCodePro Nerd Font Propo';-inkscape-font-specification:'SauceCodePro Nerd Font Propo Bold';fill:#7348fb;fill-opacity:1;stroke-width:0.264583"
               x="83.927444"
               y="134.68272">       Form</tspan></text></g><g
           id="g104"><path
             style="font-weight:bold;font-size:11.2889px;line-height:1.25;font-family:'SauceCodePro Nerd Font Propo';-inkscape-font-specification:'SauceCodePro Nerd Font Propo Bold';fill:#7d8b9d;stroke-width:1;stroke:none;stroke-opacity:1;stroke-dasharray:none;paint-order:stroke markers fill;stroke-linecap:round;stroke-linejoin:round;fill-opacity:1"
             d="m 87.799537,134.81819 q -0.936978,0 -1.704624,-0.42898 -0.767645,-0.42898 -1.219201,-1.26435 -0.451556,-0.84667 -0.451556,-2.07716 0,-1.23049 0.451556,-2.08845 0.451556,-0.86924 1.219201,-1.3208 0.778934,-0.45156 1.727202,-0.45156 0.745068,0 1.275646,0.29352 0.530578,0.28222 0.880534,0.64346 l -0.914401,1.02729 q -0.237067,-0.23706 -0.519289,-0.38382 -0.282223,-0.14676 -0.72249,-0.14676 -0.72249,0 -1.207912,0.63218 -0.474134,0.63218 -0.474134,1.73849 0,1.12889 0.440267,1.76107 0.440267,0.63218 1.309512,0.63218 0.21449,0 0.406401,-0.0564 0.2032,-0.0564 0.316089,-0.16934 v -1.26435 h -1.072445 v -1.35467 h 2.56258 v 3.38667 q -0.372534,0.34995 -0.993423,0.62089 -0.609601,0.27093 -1.309513,0.27093 z m 6.039566,-0.13547 v -4.30107 h -2.246491 v -1.29822 h 3.90596 v 5.59929 z m 0.756357,-6.47982 q -0.485423,0 -0.801512,-0.27094 -0.304801,-0.28222 -0.304801,-0.73378 0,-0.46284 0.304801,-0.74506 0.316089,-0.29352 0.801512,-0.29352 0.485422,0 0.790223,0.29352 0.316089,0.28222 0.316089,0.74506 0,0.45156 -0.316089,0.73378 -0.304801,0.27094 -0.790223,0.27094 z m 7.25877,6.61529 q -0.89183,0 -1.4224,-0.3048 -0.530583,-0.31609 -0.76765,-0.86924 -0.225778,-0.55316 -0.225778,-1.28694 v -1.97556 H 98.02729 v -1.23049 l 1.490134,-0.0677 0.21449,-1.71591 h 1.365956 v 1.71591 h 2.37067 v 1.29822 h -2.37067 v 1.96427 q 0,0.63218 0.28222,0.90311 0.28223,0.27094 0.90312,0.27094 0.31608,0 0.58702,-0.0565 0.27093,-0.0677 0.51929,-0.14675 l 0.29351,1.19662 q -0.37254,0.11289 -0.82409,0.2032 -0.44027,0.1016 -1.00471,0.1016 z m 3.11574,-0.13547 v -7.36036 h 1.65947 v 2.83351 h 2.00942 v -2.83351 h 1.65947 v 7.36036 h -1.65947 v -3.07058 h -2.00942 v 3.07058 z m 8.56828,0.13547 q -0.95956,0 -1.38854,-0.6096 -0.42898,-0.6096 -0.42898,-1.67076 v -3.4544 h 1.65947 v 3.23991 q 0,0.55316 0.16934,0.82409 0.18062,0.25965 0.64346,0.25965 0.31609,0 0.56445,-0.13547 0.24835,-0.13547 0.53058,-0.508 v -3.68018 h 1.65947 v 5.59929 h -1.35467 l -0.12418,-0.80151 h -0.0452 q -0.37253,0.41769 -0.83537,0.67734 -0.45156,0.25964 -1.04987,0.25964 z m 8.07156,0 q -0.8128,0 -1.524,-0.74507 h -0.0451 l -0.13547,0.6096 h -1.29822 v -7.91352 h 1.65947 v 1.9417 l -0.0564,0.88053 h 0.0339 q 0.31609,-0.3048 0.72249,-0.47413 0.4064,-0.16934 0.8128,-0.16934 1.04987,0 1.64818,0.77894 0.6096,0.76764 0.6096,2.05458 0,0.95955 -0.34996,1.64818 -0.33866,0.67733 -0.89182,1.03857 -0.55316,0.34996 -1.18534,0.34996 z m -0.37253,-1.35467 q 0.46285,0 0.77894,-0.39511 0.31608,-0.39511 0.31608,-1.25307 0,-1.51271 -1.02729,-1.51271 -0.53057,0 -1.03857,0.51929 v 2.26907 q 0.23706,0.2032 0.49671,0.29351 0.25964,0.079 0.47413,0.079 z m 44.81697,1.2192 v -7.36036 h 2.60773 q 0.80152,0 1.44498,0.22578 0.65476,0.21449 1.03858,0.73378 0.39511,0.51929 0.39511,1.41111 0,0.85796 -0.39511,1.41111 -0.39511,0.55316 -1.04987,0.82409 -0.65475,0.25965 -1.43369,0.25965 h -0.94826 v 2.49484 z m 1.65947,-3.81564 h 0.84666 q 1.35467,0 1.35467,-1.17405 0,-0.57573 -0.34995,-0.8128 -0.33867,-0.23707 -1.00472,-0.23707 h -0.84666 z m 5.57672,3.81564 v -5.59929 h 1.35467 l 0.13546,1.2192 h 0.0339 q 0.41769,-0.68862 1.00471,-1.016 0.59831,-0.33867 1.26436,-0.33867 0.37253,0 0.59831,0.0565 0.23707,0.0564 0.48542,0.16933 l -0.33866,1.38854 q -0.25965,-0.079 -0.47414,-0.11289 -0.2032,-0.0452 -0.51929,-0.0452 -0.51929,0 -1.02729,0.3048 -0.49671,0.3048 -0.85795,1.06116 v 2.91253 z m 9.0537,-4.4704 q -0.48543,0 -0.82409,0.25964 -0.33867,0.25965 -0.46285,0.79023 h 2.39325 q -0.12418,-1.04987 -1.10631,-1.04987 z m 0.13546,4.60587 q -0.88053,0 -1.58044,-0.33867 -0.69992,-0.34995 -1.11761,-1.00471 -0.4064,-0.66604 -0.4064,-1.59173 0,-0.92569 0.41769,-1.58045 0.41769,-0.65476 1.08374,-1.00471 0.66604,-0.34996 1.41111,-0.34996 0.86925,0 1.45627,0.36125 0.58702,0.34995 0.88053,0.95955 0.3048,0.59832 0.3048,1.36596 0,0.22578 -0.0339,0.44027 -0.0226,0.2032 -0.0452,0.3048 h -3.81565 q 0.12418,0.6096 0.55316,0.89182 0.42898,0.28222 1.1176,0.28222 0.38382,0 0.72249,-0.1016 0.34996,-0.1016 0.72249,-0.29351 l 0.55316,1.00471 q -0.48543,0.3048 -1.07245,0.48543 -0.58702,0.16933 -1.15147,0.16933 z m 5.50899,-0.13547 -2.11102,-5.59929 h 1.67075 l 0.88054,2.6416 q 0.13546,0.41769 0.25964,0.85796 0.12418,0.42898 0.24836,0.86924 h 0.0452 q 0.12418,-0.44026 0.23707,-0.86924 0.12418,-0.44027 0.25965,-0.85796 l 0.88053,-2.6416 h 1.59174 l -2.05458,5.59929 z m 7.45068,0 v -4.30107 h -2.24649 v -1.29822 h 3.90596 v 5.59929 z m 0.75636,-6.47982 q -0.48543,0 -0.80151,-0.27094 -0.3048,-0.28222 -0.3048,-0.73378 0,-0.46284 0.3048,-0.74506 0.31608,-0.29352 0.80151,-0.29352 0.48542,0 0.79022,0.29352 0.31609,0.28222 0.31609,0.74506 0,0.45156 -0.31609,0.73378 -0.3048,0.27094 -0.79022,0.27094 z m 6.46854,2.00942 q -0.48542,0 -0.82409,0.25964 -0.33866,0.25965 -0.46284,0.79023 h 2.39325 q -0.12418,-1.04987 -1.10632,-1.04987 z m 0.13547,4.60587 q -0.88053,0 -1.58045,-0.33867 -0.69991,-0.34995 -1.1176,-1.00471 -0.4064,-0.66604 -0.4064,-1.59173 0,-0.92569 0.41769,-1.58045 0.41769,-0.65476 1.08374,-1.00471 0.66604,-0.34996 1.41111,-0.34996 0.86924,0 1.45627,0.36125 0.58702,0.34995 0.88053,0.95955 0.3048,0.59832 0.3048,1.36596 0,0.22578 -0.0339,0.44027 -0.0226,0.2032 -0.0452,0.3048 h -3.81565 q 0.12418,0.6096 0.55316,0.89182 0.42897,0.28222 1.1176,0.28222 0.38382,0 0.72249,-0.1016 0.34995,-0.1016 0.72249,-0.29351 l 0.55315,1.00471 q -0.48542,0.3048 -1.07244,0.48543 -0.58703,0.16933 -1.15147,0.16933 z m 4.00757,-0.13547 -0.91441,-5.59929 h 1.60303 l 0.34995,2.59645 q 0.0565,0.41769 0.0903,0.82409 0.0451,0.4064 0.0903,0.83537 h 0.0339 q 0.0564,-0.42897 0.11289,-0.84666 0.0677,-0.41769 0.14676,-0.8128 l 0.34995,-1.85138 h 1.20792 l 0.36124,1.85138 q 0.0903,0.41769 0.15805,0.82409 0.0677,0.4064 0.12417,0.83537 h 0.0452 q 0.0564,-0.42897 0.079,-0.83537 0.0339,-0.4064 0.079,-0.82409 l 0.31609,-2.59645 h 1.53529 l -0.85795,5.59929 h -1.95298 l -0.3048,-1.81751 q -0.0452,-0.36124 -0.1016,-0.76764 -0.0452,-0.4064 -0.1016,-0.89183 h -0.0452 q -0.0677,0.65476 -0.19191,1.65947 l -0.29351,1.81751 z"
             id="text104"
             aria-label="GitHub      Preview" /><path
             style="font-weight:bold;font-size:11.2889px;line-height:1.25;font-family:'SauceCodePro Nerd Font Propo';-inkscape-font-specification:'SauceCodePro Nerd Font Propo Bold';fill:#7348fb;stroke-width:0.264583"
             d="m 132.52619,134.68273 v -7.36036 h 4.88809 v 1.39983 h -3.22862 v 1.70462 h 2.75449 v 1.39982 h -2.75449 v 2.85609 z m 8.97468,0.13547 q -0.74507,0 -1.39982,-0.33867 -0.64347,-0.34995 -1.04987,-1.00471 -0.4064,-0.66604 -0.4064,-1.59173 0,-0.93698 0.4064,-1.59174 0.4064,-0.65475 1.04987,-0.99342 0.65475,-0.34996 1.39982,-0.34996 0.74507,0 1.38854,0.34996 0.65475,0.33867 1.06115,0.99342 0.4064,0.65476 0.4064,1.59174 0,0.92569 -0.4064,1.59173 -0.4064,0.65476 -1.06115,1.00471 -0.64347,0.33867 -1.38854,0.33867 z m 0,-1.34338 q 0.57573,0 0.85796,-0.42898 0.29351,-0.44026 0.29351,-1.16275 0,-0.73378 -0.29351,-1.16276 -0.28223,-0.42898 -0.85796,-0.42898 -0.57573,0 -0.86924,0.42898 -0.28223,0.42898 -0.28223,1.16276 0,0.72249 0.28223,1.16275 0.29351,0.42898 0.86924,0.42898 z m 4.69619,1.20791 v -5.59929 h 1.35467 l 0.13546,1.2192 h 0.0339 q 0.41769,-0.68862 1.00471,-1.016 0.59831,-0.33867 1.26436,-0.33867 0.37253,0 0.59831,0.0564 0.23707,0.0564 0.48542,0.16933 l -0.33866,1.38854 q -0.25965,-0.079 -0.47414,-0.11289 -0.2032,-0.0452 -0.51929,-0.0452 -0.51929,0 -1.02729,0.3048 -0.49671,0.3048 -0.85795,1.06116 v 2.91253 z m 5.85894,0 v -5.59929 h 1.25307 l 0.11289,0.68862 h 0.0451 q 0.15805,-0.33866 0.44027,-0.57573 0.28222,-0.24836 0.76765,-0.24836 0.76764,0 0.97084,0.9144 0.15805,-0.38382 0.45156,-0.64346 0.3048,-0.27094 0.79022,-0.27094 0.59831,0 0.92569,0.48543 0.32738,0.48542 0.32738,1.3208 v 3.92853 h -1.58045 v -3.81564 q 0,-0.508 -0.3048,-0.508 -0.27093,0 -0.508,0.54186 v 3.78178 h -1.29822 v -3.81564 q 0,-0.508 -0.31609,-0.508 -0.15805,0 -0.27094,0.13546 -0.11288,0.13547 -0.22577,0.4064 v 3.78178 z"
             id="text103"
             aria-label="       Form" /></g></g><g
         id="g27"
         inkscape:label="right"
         style="display:inline"><path
           style="baseline-shift:baseline;display:inline;overflow:visible;opacity:1;fill:#ffffff;fill-opacity:1;fill-rule:evenodd;stroke:#b1bdc7;stroke-width:2;stroke-linejoin:miter;stroke-dasharray:none;stroke-opacity:1;paint-order:stroke fill markers;enable-background:accumulate;stop-color:#000000;stop-opacity:1"
           d="m 153.34154,100.42023 v 22.07979 h 63.5708 c 3.16771,0 5.70095,-2.53532 5.70095,-5.70301 V 38.525297 c 0,-3.167705 -2.53324,-5.700944 -5.70095,-5.700944 h -63.5708 v 21.816239 c 10.49037,2.333114 18.33997,11.700313 18.33997,22.890593 0,11.190279 -7.8496,20.556323 -18.33997,22.889045 z"
           id="path20" /><rect
           style="opacity:1;fill:#f9f9f9;fill-opacity:1;fill-rule:evenodd;stroke:#b1bdc7;stroke-width:1.043;stroke-linecap:round;stroke-linejoin:round;stroke-dasharray:none;stroke-opacity:1;paint-order:fill markers stroke"
           id="rect22"
           width="42.193268"
           height="9.377655"
           x="172.4155"
           y="43.764259"
           ry="1.7380149" /><rect
           style="opacity:1;fill:#f9f9f9;fill-opacity:1;fill-rule:evenodd;stroke:#b1bdc7;stroke-width:1.04;stroke-linecap:round;stroke-linejoin:round;stroke-dasharray:none;stroke-opacity:1;paint-order:fill markers stroke"
           id="rect23"
           width="38.104481"
           height="9.2636957"
           x="176.50574"
           y="60.536259"
           ry="1.7814975" /><rect
           style="opacity:1;fill:#f9f9f9;fill-opacity:1;fill-rule:evenodd;stroke:#b1bdc7;stroke-width:1.04;stroke-linecap:round;stroke-linejoin:round;stroke-dasharray:none;stroke-opacity:1;paint-order:fill markers stroke"
           id="rect24"
           width="37.5415"
           height="22.342028"
           x="176.78723"
           y="77.032242"
           ry="2.5245087" /><path
           style="fill:none;stroke:#b1bdc7;stroke-width:2.50018;stroke-linecap:round;stroke-linejoin:miter;stroke-dasharray:none;stroke-opacity:1"
           d="m 180.25084,82.701116 h 17.66797"
           id="path24"
           inkscape:path-effect="#path-effect24"
           inkscape:original-d="m 180.25084,82.701116 h 17.66797"
           transform="matrix(0.86180381,0,0,1,26.202902,0)" /><path
           style="fill:none;stroke:#b1bdc7;stroke-width:2.321;stroke-linecap:round;stroke-linejoin:miter;stroke-dasharray:none;stroke-opacity:1"
           d="m 180.46643,88.715743 h 10.68592"
           id="path26"
           inkscape:path-effect="#path-effect27"
           inkscape:original-d="m 180.46643,88.715743 h 10.68592"
           transform="matrix(0.82659347,0,0,1,32.253321,0)" /><rect
           style="opacity:1;fill:#20a345;fill-opacity:1;fill-rule:evenodd;stroke:#20a345;stroke-width:2.19363;stroke-linecap:round;stroke-linejoin:round;stroke-dasharray:none;stroke-opacity:1;paint-order:stroke fill markers"
           id="rect27"
           width="38.908062"
           height="11.490891"
           x="175.12498"
           y="105.29575"
           ry="1.0302973" /><path
           style="fill:none;stroke:#ffffff;stroke-width:1.6;stroke-linecap:round;stroke-linejoin:round;stroke-dasharray:none;stroke-opacity:1"
           d="m 190.73269,111.23718 c 1.00992,0.79389 1.83211,1.67965 2.68184,2.55385 1.8123,-2.00411 3.70962,-3.83372 5.48046,-5.4648"
           id="path63"
           sodipodi:nodetypes="ccc" /></g><g
         id="g62"
         inkscape:label="left"
         transform="translate(8.57968,0.620227)"><path
           style="baseline-shift:baseline;display:inline;overflow:visible;opacity:1;fill:#051429;fill-opacity:1;fill-rule:evenodd;stroke:#051429;stroke-width:2;stroke-linejoin:miter;stroke-dasharray:none;stroke-opacity:1;paint-order:stroke fill markers;enable-background:accumulate;stop-color:#000000;stop-opacity:1"
           d="M 138.92032,53.474146 V 32.204126 H 71.428312 c -3.167706,0 -5.701461,2.533239 -5.701461,5.700944 v 78.27171 c 0,3.16769 2.533755,5.70301 5.701461,5.70301 h 67.492008 v -21.53357 c -12.59131,-0.403337 -22.68544,-10.74648 -22.68544,-23.435262 0,-12.688783 10.09413,-23.033401 22.68544,-23.436812 z"
           id="path19"
           inkscape:label="left-bg" /><g
           id="g61"
           transform="translate(-8.771775,-0.08104154)"
           style="display:inline"><circle
             style="display:inline;opacity:1;fill:#6b7c95;fill-opacity:1;fill-rule:evenodd;stroke:none;stroke-width:1.04;stroke-linecap:round;stroke-linejoin:round;stroke-dasharray:none;stroke-opacity:1;paint-order:stroke fill markers"
             id="circle59"
             cx="81.68026"
             cy="83.754501"
             r="0.88496459"
             transform="translate(0.17720764,27.220214)" /><path
             style="display:inline;fill:none;stroke:#7348fb;stroke-width:1.8;stroke-linecap:round;stroke-linejoin:round;stroke-dasharray:none;stroke-opacity:1"
             d="M 88.226236,56.64173 H 103.80744"
             id="path59"
             inkscape:path-effect="#path-effect61"
             inkscape:original-d="M 88.226236,56.64173 H 103.80744"
             sodipodi:nodetypes="cc"
             transform="translate(0.17720764,54.332984)" /></g><g
           id="g50"
           style="display:inline"
           transform="translate(-8.5945673,26.952634)"><circle
             style="opacity:1;fill:#6b7c95;fill-opacity:1;fill-rule:evenodd;stroke:none;stroke-width:1.04;stroke-linecap:round;stroke-linejoin:round;stroke-dasharray:none;stroke-opacity:1;paint-order:stroke fill markers"
             id="circle44"
             cx="81.68026"
             cy="56.641731"
             r="0.88496459" /><path
             style="fill:none;stroke:#7348fb;stroke-width:1.8;stroke-linecap:round;stroke-linejoin:round;stroke-dasharray:none;stroke-opacity:1"
             d="M 88.226236,56.64173 H 103.80744"
             id="path46"
             inkscape:path-effect="#path-effect51"
             inkscape:original-d="M 88.226236,56.64173 H 103.80744"
             sodipodi:nodetypes="cc" /><path
             style="fill:none;stroke:#7d8b9d;stroke-width:1.8;stroke-linecap:round;stroke-linejoin:round;stroke-dasharray:none;stroke-opacity:1"
             d="M 119.86963,63.53517 H 95.432023"
             id="path47"
             inkscape:path-effect="#path-effect53"
             inkscape:original-d="M 119.86963,63.53517 H 95.432023"
             sodipodi:nodetypes="cc" /><path
             style="fill:none;stroke:#b1bdc7;stroke-width:1.5;stroke-linecap:round;stroke-linejoin:round;stroke-dasharray:none;stroke-opacity:1"
             d="M 94.732018,70.423079 H 107.02001"
             id="path48"
             inkscape:path-effect="#path-effect55"
             inkscape:original-d="M 94.732018,70.423079 H 107.02001"
             sodipodi:nodetypes="cc"
             transform="translate(0.70000274,-0.16024913)" /><path
             style="fill:none;stroke:#7d8b9d;stroke-width:1.7;stroke-linecap:round;stroke-linejoin:round;stroke-dasharray:none;stroke-opacity:1"
             d="M 95.432023,77.05487 H 115.68758"
             id="path49"
             inkscape:path-effect="#path-effect57"
             inkscape:original-d="M 95.432023,77.05487 H 115.68758"
             sodipodi:nodetypes="cc" /><path
             style="fill:none;stroke:#b1bdc7;stroke-width:1;stroke-linecap:round;stroke-linejoin:round;stroke-dasharray:none;stroke-opacity:1"
             d="m 89.451908,63.53517 h 1.683783"
             id="path50"
             inkscape:path-effect="#path-effect59"
             inkscape:original-d="m 89.451908,63.53517 h 1.683783"
             sodipodi:nodetypes="cc" /><circle
             style="display:inline;fill:#6b7c95;fill-opacity:1;fill-rule:evenodd;stroke:none;stroke-width:1.04;stroke-linecap:round;stroke-linejoin:round;stroke-dasharray:none;stroke-opacity:1;paint-order:stroke fill markers"
             id="circle64-0"
             cx="81.68026"
             cy="90.719643"
             r="0.66345501"
             transform="translate(-3.0810923e-6,-27.218449)" /><circle
             style="display:inline;fill:#6b7c95;fill-opacity:1;fill-rule:evenodd;stroke:none;stroke-width:1.04;stroke-linecap:round;stroke-linejoin:round;stroke-dasharray:none;stroke-opacity:1;paint-order:stroke fill markers"
             id="circle65"
             cx="81.68026"
             cy="70.267395"
             r="0.66345501" /><circle
             style="display:inline;fill:#6b7c95;fill-opacity:1;fill-rule:evenodd;stroke:none;stroke-width:1.04;stroke-linecap:round;stroke-linejoin:round;stroke-dasharray:none;stroke-opacity:1;paint-order:stroke fill markers"
             id="circle66"
             cx="81.68026"
             cy="77.054878"
             r="0.66345501" /></g><g
           id="g43"
           style="display:inline"
           transform="translate(-8.5945704,-0.26581146)"><circle
             style="opacity:1;fill:#6b7c95;fill-opacity:1;fill-rule:evenodd;stroke:none;stroke-width:1.04;stroke-linecap:round;stroke-linejoin:round;stroke-dasharray:none;stroke-opacity:1;paint-order:stroke fill markers"
             id="path30"
             cx="81.68026"
             cy="56.641731"
             r="0.88496459" /><circle
             style="opacity:1;fill:#6b7c95;fill-opacity:1;fill-rule:evenodd;stroke:none;stroke-width:1.04;stroke-linecap:round;stroke-linejoin:round;stroke-dasharray:none;stroke-opacity:1;paint-order:stroke fill markers"
             id="circle30"
             cx="81.68026"
             cy="63.535172"
             r="0.66345501" /><path
             style="fill:none;stroke:#7348fb;stroke-width:1.8;stroke-linecap:round;stroke-linejoin:round;stroke-dasharray:none;stroke-opacity:1"
             d="M 88.226236,56.64173 H 103.80744"
             id="path38"
             inkscape:path-effect="#path-effect38"
             inkscape:original-d="M 88.226236,56.64173 H 103.80744"
             sodipodi:nodetypes="cc" /><path
             style="fill:none;stroke:#7d8b9d;stroke-width:1.8;stroke-linecap:round;stroke-linejoin:round;stroke-dasharray:none;stroke-opacity:1"
             d="M 119.86963,63.53517 H 95.432023"
             id="path39"
             inkscape:path-effect="#path-effect39"
             inkscape:original-d="M 119.86963,63.53517 H 95.432023"
             sodipodi:nodetypes="cc" /><path
             style="fill:none;stroke:#b1bdc7;stroke-width:1.5;stroke-linecap:round;stroke-linejoin:round;stroke-dasharray:none;stroke-opacity:1"
             d="M 94.732018,70.423079 H 107.02001"
             id="path40"
             inkscape:path-effect="#path-effect40"
             inkscape:original-d="M 94.732018,70.423079 H 107.02001"
             sodipodi:nodetypes="cc"
             transform="translate(0.70000274,-0.16024913)" /><path
             style="fill:none;stroke:#7d8b9d;stroke-width:1.7;stroke-linecap:round;stroke-linejoin:round;stroke-dasharray:none;stroke-opacity:1"
             d="M 95.432023,77.05487 H 115.68758"
             id="path41"
             inkscape:path-effect="#path-effect41"
             inkscape:original-d="M 95.432023,77.05487 H 115.68758"
             sodipodi:nodetypes="cc" /><path
             style="fill:none;stroke:#b1bdc7;stroke-width:1;stroke-linecap:round;stroke-linejoin:round;stroke-dasharray:none;stroke-opacity:1"
             d="m 89.451908,63.53517 h 1.683783"
             id="path42"
             inkscape:path-effect="#path-effect43"
             inkscape:original-d="m 89.451908,63.53517 h 1.683783"
             sodipodi:nodetypes="cc" /><circle
             style="opacity:1;fill:#6b7c95;fill-opacity:1;fill-rule:evenodd;stroke:none;stroke-width:1.04;stroke-linecap:round;stroke-linejoin:round;stroke-dasharray:none;stroke-opacity:1;paint-order:stroke fill markers"
             id="circle63"
             cx="81.68026"
             cy="70.262833"
             r="0.66345501" /><circle
             style="opacity:1;fill:#6b7c95;fill-opacity:1;fill-rule:evenodd;stroke:none;stroke-width:1.04;stroke-linecap:round;stroke-linejoin:round;stroke-dasharray:none;stroke-opacity:1;paint-order:stroke fill markers"
             id="circle64"
             cx="81.68026"
             cy="77.054871"
             r="0.66345501" /></g><g
           id="g101"><text
             xml:space="preserve"
             style="font-size:8.46667px;line-height:1.25;font-family:'Arial Rounded MT';-inkscape-font-specification:'Arial Rounded MT, Normal';text-align:center;text-anchor:middle;display:none;fill:#7348fb;fill-opacity:1;stroke-width:0.264583"
             x="81.519669"
             y="46.31308"
             id="text101"
             sodipodi:insensitive="true"><tspan
               sodipodi:role="line"
               id="tspan101"
               style="font-style:normal;font-variant:normal;font-weight:600;font-stretch:normal;font-size:8.46667px;font-family:'SauceCodePro Nerd Font Propo';-inkscape-font-specification:'SauceCodePro Nerd Font Propo Semi-Bold';fill:#7348fb;fill-opacity:1;stroke-width:0.264583"
               x="0"
               y="0"
               dx="0.5">.yml</tspan></text><path
             style="font-weight:600;font-size:8.46667px;line-height:1.25;font-family:'SauceCodePro Nerd Font Propo';-inkscape-font-specification:'SauceCodePro Nerd Font Propo Semi-Bold';text-align:center;text-anchor:middle;fill:#7348fb;stroke-width:0.264583"
             d="m 74.149659,46.41468 q -0.364067,0 -0.601133,-0.245534 -0.237067,-0.245533 -0.237067,-0.6096 0,-0.372533 0.237067,-0.6096 0.237066,-0.245533 0.601133,-0.245533 0.364067,0 0.601134,0.245533 0.237066,0.237067 0.237066,0.6096 0,0.364067 -0.237066,0.6096 -0.237067,0.245534 -0.601134,0.245534 z m 3.699938,1.608667 q -0.160867,0 -0.321733,-0.0254 -0.1524,-0.0254 -0.270934,-0.05927 l 0.186267,-0.762 q 0.08467,0.0254 0.169333,0.04233 0.09313,0.01693 0.1778,0.01693 0.397934,0 0.635001,-0.2032 0.237066,-0.194734 0.364066,-0.508 l 0.1016,-0.262467 -1.862667,-4.106335 h 0.973667 l 0.855134,2.040467 q 0.118533,0.2794 0.2286,0.592667 0.118533,0.313267 0.2286,0.626534 h 0.03387 q 0.09313,-0.296334 0.2032,-0.6096 0.110066,-0.321734 0.211666,-0.609601 l 0.753534,-2.040467 h 0.922867 l -1.735667,4.343402 q -0.262467,0.702733 -0.6858,1.109133 -0.414867,0.414867 -1.168401,0.414867 z m 4.309538,-1.710267 v -4.157135 h 0.753534 l 0.0762,0.524933 h 0.0254 q 0.135467,-0.270933 0.347133,-0.448733 0.211667,-0.1778 0.575734,-0.1778 0.5842,0 0.753534,0.694267 0.143933,-0.3048 0.364066,-0.499534 0.220134,-0.194733 0.584201,-0.194733 0.440266,0 0.677333,0.347133 0.245534,0.338667 0.245534,0.965201 v 2.946401 h -0.939801 v -2.878668 q 0,-0.550334 -0.3302,-0.550334 -0.169333,0 -0.287867,0.135467 -0.110066,0.127 -0.237066,0.389467 v 2.904068 h -0.812801 v -2.878668 q 0,-0.550334 -0.3302,-0.550334 -0.160867,0 -0.2794,0.135467 -0.118533,0.127 -0.237067,0.389467 v 2.904068 z m 8.085673,0.1016 q -0.719667,0 -1.100667,-0.423334 -0.381,-0.423333 -0.381,-1.1938 v -3.691468 h -1.388534 v -0.770467 h 2.362201 v 4.512735 q 0,0.414867 0.211666,0.592667 0.220134,0.1778 0.533401,0.1778 0.3302,0 0.7112,-0.160867 l 0.2286,0.719667 q -0.3048,0.110067 -0.5588,0.169334 -0.254,0.06773 -0.618067,0.06773 z"
             id="text30"
             aria-label=".yml" /></g></g><g
         id="g83"
         inkscape:label="center"
         style="display:inline"><path
           style="baseline-shift:baseline;display:none;overflow:visible;opacity:1;fill:#ffff00;fill-rule:evenodd;stroke:none;stroke-width:2;stroke-linejoin:round;stroke-dasharray:none;stroke-opacity:1;paint-order:stroke fill markers;enable-background:accumulate;stop-color:#000000;stop-opacity:1"
           d="m 148.23436,55.081909 c -12.40382,0 -22.44927,10.04545 -22.44927,22.449276 0,12.403825 10.04545,22.447209 22.44927,22.447209 12.40383,0 22.44721,-10.043384 22.44721,-22.447209 0,-12.403826 -10.04338,-22.449276 -22.44721,-22.449276 z"
           id="path21"
           inkscape:label="center-bg"
           sodipodi:insensitive="true" /><path
           style="baseline-shift:baseline;display:inline;overflow:visible;opacity:1;fill:url(#linearGradient99);fill-rule:evenodd;stroke:none;stroke-width:0.493042;stroke-linejoin:round;stroke-dasharray:none;stroke-opacity:1;paint-order:stroke fill markers;enable-background:accumulate;stop-color:#000000;stop-opacity:1"
           d="m 148.23359,71.996164 c -3.05782,0 -5.53425,2.476425 -5.53425,5.534242 0,3.057817 2.47643,5.533733 5.53425,5.533733 3.05781,0 5.53373,-2.475916 5.53373,-5.533733 0,-3.057817 -2.47592,-5.534242 -5.53373,-5.534242 z"
           id="path66"
           inkscape:label="inner" /><path
           stroke-width="0.376663"
           fill-opacity="1"
           opacity="1"
           d="m 160.25656,77.585468 c -0.0129,6.783029 -5.50198,12.272147 -12.285,12.285027 -6.78589,-0.01281 -12.27644,-5.501998 -12.28789,-12.285027 0.0114,-6.785893 5.502,-12.276437 12.28789,-12.287891 2.73811,0 5.24579,0.900303 7.28542,2.413208 l -2.55062,2.552045 12.0646,3.229061 -3.23479,-12.06174 -2.70517,2.705195 c -2.96572,-2.400325 -6.75156,-3.84739 -10.85944,-3.84739 -9.55264,0.0043 -17.29323,7.744878 -17.2961,17.297512 0.003,9.554068 7.74344,17.29465 17.2961,17.29465 9.55262,0 17.29464,-7.740582 17.29464,-17.29465 z"
           stroke="none"
           fill="url(#184190-_03CA45-_AF00AA)"
           style="display:none;overflow:hidden;fill:url(#linearGradient2);fill-opacity:1"
           id="path2"
           sodipodi:insensitive="true" /><path
           stroke-width="0.502419"
           fill-opacity="1"
           opacity="1"
           d="m 148.71196,93.999082 c -8.98831,-0.01721 -16.26088,-7.390498 -16.27604,-16.501727 0.015,-9.115075 7.28773,-16.490188 16.27604,-16.505574 3.62679,0 6.94836,1.209323 9.64996,3.241515 l -3.37845,3.428007 15.98029,4.3374 -4.28468,-16.201798 -3.58315,3.633723 c -3.92828,-3.22421 -8.94285,-5.167965 -14.38397,-5.167965 -12.65304,0.0058 -22.9059,10.403223 -22.90971,23.234692 0.004,12.833397 10.25664,23.230855 22.90971,23.230855 12.653,0 22.90776,-10.397458 22.90776,-23.230855 0.0735,-1.911335 -0.1452,-3.744219 -0.65596,-5.498652 l -1.01469,-0.275408 c 1.01469,9.727731 -7.68712,22.142325 -21.23711,22.275787 z"
           stroke="none"
           fill="url(#184190-_03CA45-_AF00AA)"
           style="display:inline;overflow:hidden;fill:url(#linearGradient67);fill-opacity:1"
           id="path67"
           sodipodi:nodetypes="ccccccccccscccc" /></g></g></g></svg>
