<?xml version="1.0" encoding="UTF-8"?>
<svg width="160mm" height="110mm" version="1.1" viewBox="0 0 160 110" xml:space="preserve" xmlns="http://www.w3.org/2000/svg" xmlns:xlink="http://www.w3.org/1999/xlink"><defs><linearGradient id="a" x1="3.4161" x2="3.4161" y1="27.582" y2="3.4149" gradientTransform="matrix(1.4313 0 0 1.4314 125.79 55.4)" gradientUnits="userSpaceOnUse"><stop stop-color="#7348fb" offset="0"/><stop stop-color="#20a345" offset="1"/></linearGradient><linearGradient id="c" x1="5.3817" x2="23.587" y1="27.306" y2="-.17965" gradientTransform="matrix(1.8958 0 0 1.9226 119.33 47.697)" gradientUnits="userSpaceOnUse"><stop stop-color="#051429" offset="0"/><stop stop-color="#7348fb" offset=".39793"/><stop stop-color="#20a345" offset=".75"/></linearGradient><linearGradient id="b" x1="142.7" x2="153.77" y1="77.53" y2="77.53" gradientUnits="userSpaceOnUse" xlink:href="#a"/><linearGradient id="d" x1="3.4161" x2="3.4161" y1="27.582" y2="3.4149" gradientTransform="matrix(1.4313 0 0 1.4314 125.79 55.4)" gradientUnits="userSpaceOnUse" xlink:href="#a"/></defs><g transform="translate(-68.46 -28.321)"><rect x="73.776" y="32.323" width="149.34" height="90.676" ry="6.2023" display="none" fill="none" stroke="#000" stroke-linejoin="round" style="paint-order:stroke fill markers"/><circle cx="148.23" cy="77.531" r="22.948" display="none" fill="#fff" fill-rule="evenodd" stroke="#000" stroke-linejoin="round" style="paint-order:stroke fill markers"/><g><g><g font-family="'Arial Rounded MT'" font-size="11.289px" stroke-width=".26458"><text x="124.84351" y="134.71483" fill="#7d8b9d" style="line-height:1.25" xml:space="preserve"><tspan x="124.84351" y="134.71483" fill="#7d8b9d" font-family="'SauceCodePro Nerd Font Propo'" font-size="11.289px" font-weight="bold" stroke-width=".26458">GH</tspan></text><text x="124.84351" y="134.71483" fill="#7348fb" style="line-height:1.25" xml:space="preserve"><tspan x="124.84351" y="134.71483" fill="#7348fb" font-family="'SauceCodePro Nerd Font Propo'" font-size="11.289px" font-weight="bold" stroke-width=".26458">  Forms</tspan></text></g><path d="m153.34 100.42v22.08h63.571c3.1677 0 5.701-2.5353 5.701-5.703v-78.272c0-3.1677-2.5332-5.7009-5.701-5.7009h-63.571v21.816c10.49 2.3331 18.34 11.7 18.34 22.891 0 11.19-7.8496 20.556-18.34 22.889z" fill="#fff" fill-rule="evenodd" stop-color="#000000" stroke="#b1bdc7" stroke-width="2" style="paint-order:stroke fill markers"/><g fill="#f9f9f9" fill-rule="evenodd" stroke="#b1bdc7" stroke-linecap="round" stroke-linejoin="round"><rect x="172.42" y="43.764" width="42.193" height="9.3777" ry="1.738" stroke-width="1.043" style="paint-order:fill markers stroke"/><rect x="176.51" y="60.536" width="38.104" height="9.2637" ry="1.7815" stroke-width="1.04" style="paint-order:fill markers stroke"/><rect x="176.79" y="77.032" width="37.542" height="22.342" ry="2.5245" stroke-width="1.04" style="paint-order:fill markers stroke"/></g><g stroke-linecap="round"><path transform="matrix(.8618 0 0 1 26.203 0)" d="m180.25 82.701h17.668" fill="none" stroke="#b1bdc7" stroke-width="2.5002"/><path transform="matrix(.82659 0 0 1 32.253 0)" d="m180.47 88.716h10.686" fill="none" stroke="#b1bdc7" stroke-width="2.321"/><rect x="175.12" y="105.3" width="38.908" height="11.491" ry="1.0303" fill="#20a345" fill-rule="evenodd" stroke="#20a345" stroke-linejoin="round" stroke-width="2.1936" style="paint-order:stroke fill markers"/><path d="m190.73 111.24c1.0099 0.79389 1.8321 1.6796 2.6818 2.5538 1.8123-2.0041 3.7096-3.8337 5.4805-5.4648" fill="none" stroke="#fff" stroke-linejoin="round" stroke-width="1.6"/></g></g><g transform="translate(8.5797 .62023)"><path d="m138.92 53.474v-21.27h-67.492c-3.1677 0-5.7015 2.5332-5.7015 5.7009v78.272c0 3.1677 2.5338 5.703 5.7015 5.703h67.492v-21.534c-12.591-0.40334-22.685-10.746-22.685-23.435 0-12.689 10.094-23.033 22.685-23.437z" fill="#051429" fill-rule="evenodd" stop-color="#000000" stroke="#051429" stroke-width="2" style="paint-order:stroke fill markers"/><g transform="translate(-8.7718 -.081042)"><path transform="translate(.17721 54.333)" d="m88.226 56.642h15.581" fill="none" stroke="#7348fb" stroke-linecap="round" stroke-linejoin="round" stroke-width="1.8"/><circle transform="translate(.17721 27.22)" cx="81.68" cy="83.755" r=".88496" fill="#6b7c95" fill-rule="evenodd" style="paint-order:stroke fill markers"/></g><g transform="translate(-8.5946 26.953)"><g fill="none" stroke-linecap="round" stroke-linejoin="round"><path d="m88.226 56.642h15.581" stroke="#7348fb" stroke-width="1.8"/><path d="m119.87 63.535h-24.438" stroke="#7d8b9d" stroke-width="1.8"/><path transform="translate(.7 -.16025)" d="m94.732 70.423h12.288" stroke="#b1bdc7" stroke-width="1.5"/><path d="m95.432 77.055h20.256" stroke="#7d8b9d" stroke-width="1.7"/><path d="m89.452 63.535h1.6838" stroke="#b1bdc7"/></g><g fill="#6b7c95" fill-rule="evenodd"><circle cx="81.68" cy="56.642" r=".88496" style="paint-order:stroke fill markers"/><circle transform="translate(-3.0811e-6 -27.218)" cx="81.68" cy="90.72" r=".66346" style="paint-order:stroke fill markers"/><circle cx="81.68" cy="70.267" r=".66346" style="paint-order:stroke fill markers"/><circle cx="81.68" cy="77.055" r=".66346" style="paint-order:stroke fill markers"/></g></g><g transform="translate(-8.5946 -.26581)"><g fill="none" stroke-linecap="round" stroke-linejoin="round"><path d="m88.226 56.642h15.581" stroke="#7348fb" stroke-width="1.8"/><path d="m119.87 63.535h-24.438" stroke="#7d8b9d" stroke-width="1.8"/><path transform="translate(.7 -.16025)" d="m94.732 70.423h12.288" stroke="#b1bdc7" stroke-width="1.5"/><path d="m95.432 77.055h20.256" stroke="#7d8b9d" stroke-width="1.7"/><path d="m89.452 63.535h1.6838" stroke="#b1bdc7"/></g><g fill="#6b7c95" fill-rule="evenodd"><circle transform="translate(-1.2667e-6)" cx="81.68" cy="56.642" r=".88496" style="paint-order:stroke fill markers"/><circle transform="translate(-1.2667e-6)" cx="81.68" cy="63.535" r=".66346" style="paint-order:stroke fill markers"/><circle cx="81.68" cy="70.263" r=".66346" style="paint-order:stroke fill markers"/><circle cx="81.68" cy="77.055" r=".66346" style="paint-order:stroke fill markers"/></g></g><g fill="#7348fb" stroke-width=".26458"><text x="81.519669" y="46.31308" display="none" font-family="'Arial Rounded MT'" font-size="8.4667px" text-align="center" text-anchor="middle" style="line-height:1.25" xml:space="preserve"><tspan x="0" y="0" dx="0.5" fill="#7348fb" font-family="'SauceCodePro Nerd Font Propo'" font-size="8.4667px" font-weight="600" stroke-width=".26458">.yml</tspan></text><path d="m74.15 46.415q-0.36407 0-0.60113-0.24553-0.23707-0.24553-0.23707-0.6096 0-0.37253 0.23707-0.6096 0.23707-0.24553 0.60113-0.24553t0.60113 0.24553q0.23707 0.23707 0.23707 0.6096 0 0.36407-0.23707 0.6096-0.23707 0.24553-0.60113 0.24553zm3.6999 1.6087q-0.16087 0-0.32173-0.0254-0.1524-0.0254-0.27093-0.05927l0.18627-0.762q0.08467 0.0254 0.16933 0.04233 0.09313 0.01693 0.1778 0.01693 0.39793 0 0.635-0.2032 0.23707-0.19473 0.36407-0.508l0.1016-0.26247-1.8627-4.1063h0.97367l0.85513 2.0405q0.11853 0.2794 0.2286 0.59267 0.11853 0.31327 0.2286 0.62653h0.03387q0.09313-0.29633 0.2032-0.6096 0.11007-0.32173 0.21167-0.6096l0.75353-2.0405h0.92287l-1.7357 4.3434q-0.26247 0.70273-0.6858 1.1091-0.41487 0.41487-1.1684 0.41487zm4.3095-1.7103v-4.1571h0.75353l0.0762 0.52493h0.0254q0.13547-0.27093 0.34713-0.44873 0.21167-0.1778 0.57573-0.1778 0.5842 0 0.75353 0.69427 0.14393-0.3048 0.36407-0.49953 0.22013-0.19473 0.5842-0.19473 0.44027 0 0.67733 0.34713 0.24553 0.33867 0.24553 0.9652v2.9464h-0.9398v-2.8787q0-0.55033-0.3302-0.55033-0.16933 0-0.28787 0.13547-0.11007 0.127-0.23707 0.38947v2.9041h-0.8128v-2.8787q0-0.55033-0.3302-0.55033-0.16087 0-0.2794 0.13547-0.11853 0.127-0.23707 0.38947v2.9041zm8.0857 0.1016q-0.71967 0-1.1007-0.42333-0.381-0.42333-0.381-1.1938v-3.6915h-1.3885v-0.77047h2.3622v4.5127q0 0.41487 0.21167 0.59267 0.22013 0.1778 0.5334 0.1778 0.3302 0 0.7112-0.16087l0.2286 0.71967q-0.3048 0.11007-0.5588 0.16933-0.254 0.06773-0.61807 0.06773z" aria-label=".yml"/></g></g><g><path d="m148.23 55.082c-12.404 0-22.449 10.045-22.449 22.449 0 12.404 10.045 22.447 22.449 22.447 12.404 0 22.447-10.043 22.447-22.447 0-12.404-10.043-22.449-22.447-22.449z" display="none" fill="#ff0" fill-rule="evenodd" stop-color="#000000" style="paint-order:stroke fill markers"/><path d="m148.23 71.996c-3.0578 0-5.5342 2.4764-5.5342 5.5342s2.4764 5.5337 5.5342 5.5337c3.0578 0 5.5337-2.4759 5.5337-5.5337s-2.4759-5.5342-5.5337-5.5342z" fill="url(#b)" fill-rule="evenodd" stop-color="#000000" style="paint-order:stroke fill markers"/><path d="m160.26 77.585c-0.0129 6.783-5.502 12.272-12.285 12.285-6.7859-0.01281-12.276-5.502-12.288-12.285 0.0114-6.7859 5.502-12.276 12.288-12.288 2.7381 0 5.2458 0.9003 7.2854 2.4132l-2.5506 2.552 12.065 3.2291-3.2348-12.062-2.7052 2.7052c-2.9657-2.4003-6.7516-3.8474-10.859-3.8474-9.5526 0.0043-17.293 7.7449-17.296 17.298 3e-3 9.5541 7.7434 17.295 17.296 17.295 9.5526 0 17.295-7.7406 17.295-17.295z" display="none" fill="url(#d)" stroke-width=".37666"/><path d="m148.71 93.999c-8.9883-0.01721-16.261-7.3905-16.276-16.502 0.015-9.1151 7.2877-16.49 16.276-16.506 3.6268 0 6.9484 1.2093 9.65 3.2415l-3.3784 3.428 15.98 4.3374-4.2847-16.202-3.5832 3.6337c-3.9283-3.2242-8.9428-5.168-14.384-5.168-12.653 0.0058-22.906 10.403-22.91 23.235 4e-3 12.833 10.257 23.231 22.91 23.231 12.653 0 22.908-10.397 22.908-23.231 0.0735-1.9113-0.1452-3.7442-0.65596-5.4987l-1.0147-0.27541c1.0147 9.7277-7.6871 22.142-21.237 22.276z" fill="url(#c)" stroke-width=".50242"/></g></g></g></svg>
